<?xml version="1.0" standalone="no"?><!DOCTYPE svg PUBLIC "-//W3C//DTD SVG 1.1//EN" "http://www.w3.org/Graphics/SVG/1.1/DTD/svg11.dtd"><svg t="1661159849298" class="icon" viewBox="0 0 1024 1024" version="1.1" xmlns="http://www.w3.org/2000/svg" p-id="5232" xmlns:xlink="http://www.w3.org/1999/xlink" width="200" height="200"><defs><style type="text/css">@font-face { font-family: feedback-iconfont; src: url("//at.alicdn.com/t/font_1031158_u69w8yhxdu.woff2?t=1630033759944") format("woff2"), url("//at.alicdn.com/t/font_1031158_u69w8yhxdu.woff?t=1630033759944") format("woff"), url("//at.alicdn.com/t/font_1031158_u69w8yhxdu.ttf?t=1630033759944") format("truetype"); }
</style></defs><path d="M800 64h-137.6c-12.8 0-25.6 6.4-28.8 19.2-19.2 48-67.2 80-118.4 80s-99.2-32-118.4-80c-9.6-12.8-22.4-19.2-35.2-19.2H224C169.6 64 128 105.6 128 160v704c0 54.4 41.6 96 96 96h144c12.8 0 22.4-6.4 28.8-19.2 22.4-44.8 67.2-73.6 115.2-73.6s92.8 28.8 115.2 73.6c6.4 9.6 16 19.2 28.8 19.2H800c54.4 0 96-41.6 96-96V160c0-54.4-44.8-96-96-96z m-156.8 512c19.2 0 32 12.8 32 32s-12.8 32-32 32h-96v60.8c0 19.2-12.8 32-32 32s-32-12.8-32-32V640h-96c-19.2 0-32-12.8-32-32s12.8-32 32-32h96v-64h-96c-19.2 0-32-12.8-32-32s12.8-32 32-32h76.8l-67.2-73.6c-12.8-12.8-9.6-32 3.2-44.8 12.8-12.8 32-9.6 44.8 3.2l67.2 73.6s0 3.2 3.2 3.2c0 0 0-3.2 3.2-3.2l70.4-73.6c12.8-12.8 32-12.8 44.8 0 12.8 12.8 12.8 32 0 44.8L563.2 448h80c19.2 0 32 12.8 32 32s-12.8 32-32 32h-96v64h96z" fill="#666666" p-id="5233"></path></svg>